<?xml version="1.0" standalone="no"?>
<!DOCTYPE svg PUBLIC "-//W3C//DTD SVG 20010904//EN"
 "http://www.w3.org/TR/2001/REC-SVG-20010904/DTD/svg10.dtd">
<svg version="1.0" xmlns="http://www.w3.org/2000/svg"
 width="500.000000pt" height="500.000000pt" viewBox="0 0 500.000000 500.000000"
 preserveAspectRatio="xMidYMid meet">

<g transform="translate(0.000000,500.000000) scale(0.100000,-0.100000)"
fill="#000000" stroke="none">
<path d="M0 2500 l0 -2500 2500 0 2500 0 0 2500 0 2500 -2500 0 -2500 0 0
-2500z m2620 831 c0 -18 -217 -572 -229 -584 -24 -24 -8 24 101 305 96 249
128 319 128 279z m-260 -110 c0 -5 -46 -46 -102 -91 -57 -45 -103 -86 -103
-90 0 -4 46 -45 103 -90 56 -45 102 -86 102 -92 0 -5 -4 -8 -9 -6 -21 7 -231
179 -231 188 0 10 219 189 233 190 4 0 7 -4 7 -9z m410 -82 c63 -50 115 -94
115 -99 0 -9 -226 -190 -237 -190 -23 0 3 27 97 100 58 46 105 86 105 90 0 4
-47 44 -105 90 -94 73 -120 100 -97 100 4 0 59 -41 122 -91z m-335 -599 c138
-72 142 -308 7 -388 -43 -25 -57 -27 -169 -31 l-123 -3 0 227 0 227 118 -3
c102 -4 124 -7 167 -29z m435 -10 l0 -40 -105 0 -105 0 0 -50 0 -50 95 0 95 0
0 -40 0 -40 -95 0 -95 0 0 -55 0 -55 105 0 105 0 0 -40 0 -40 -150 0 -150 0 0
225 0 225 150 0 150 0 0 -40z"/>
<path d="M2248 2484 c-5 -4 -8 -70 -8 -147 l0 -140 65 5 c36 3 77 13 91 23 72
47 70 201 -3 238 -33 17 -135 32 -145 21z"/>
</g>
</svg>
